<?xml version="1.0" encoding="utf-8"?>
<!-- Generator: Adobe Illustrator 24.1.2, SVG Export Plug-In . SVG Version: 6.00 Build 0)  -->
<svg version="1.1" id="partner_logo" xmlns="http://www.w3.org/2000/svg" xmlns:xlink="http://www.w3.org/1999/xlink" x="0px"
	 y="0px" viewBox="0 0 300 60" style="enable-background:new 0 0 300 60;" xml:space="preserve">
<style type="text/css">
	.st0{fill:#326DE5;}
	.st1{fill:#326CE5;}
	.st2{fill:#FFFFFF;stroke:#FFFFFF;stroke-width:0.25;}
	.st3{fill:#0090E1;}
	.st4{fill:#0191E1;}
	.st5{fill:#0091E1;}
</style>
<g id="layer1">
	<g id="text4373">
		<path id="path2985" class="st0" d="M143.7,52.2l1-1.1c0.4-0.4,0.7-0.8,1-1.1l0.9-1.1l0.8-0.9h3.9c-0.8,0.9-1.6,1.8-2.3,2.6
			c-0.8,0.8-1.6,1.7-2.5,2.5c0.5,0.4,1,0.9,1.4,1.4c0.5,0.6,0.9,1.1,1.4,1.8c0.4,0.7,0.9,1.2,1.2,1.8c0.4,0.6,0.7,1.1,0.9,1.6h-3.8
			c-0.2-0.4-0.5-0.8-0.8-1.3c-0.3-0.5-0.6-0.9-1-1.4c-0.3-0.5-0.7-0.9-1.1-1.3c-0.3-0.4-0.7-0.8-1.1-1.1v5.1h-3.3V42.9l3.3-0.5V52.2
			"/>
		<path id="path2987" class="st0" d="M163,59.3c-0.7,0.2-1.4,0.4-2.2,0.5c-0.9,0.1-1.9,0.2-2.8,0.2c-0.8,0-1.7-0.1-2.5-0.4
			c-0.6-0.2-1.1-0.6-1.6-1.1c-0.4-0.5-0.7-1.2-0.8-1.8c-0.2-0.7-0.3-1.5-0.3-2.2v-6.5h3.3V54c-0.1,0.8,0.1,1.6,0.4,2.3
			c0.4,0.5,1,0.8,1.6,0.7h0.9h0.7v-9.1h3.3L163,59.3"/>
		<path id="path2989" class="st0" d="M173.6,53.7c0-2.1-0.8-3.2-2.4-3.2c-0.3,0-0.7,0.1-1,0.1c-0.3,0.1-0.6,0.2-0.8,0.3V57h0.6h0.8
			c0.8,0.1,1.6-0.3,2-0.9C173.4,55.4,173.7,54.6,173.6,53.7 M177,53.8c0,0.9-0.1,1.7-0.4,2.5c-0.3,0.7-0.6,1.4-1.2,1.9
			c-0.5,0.5-1.2,1-1.9,1.2c-0.8,0.3-1.7,0.4-2.6,0.4c-0.4,0-0.8,0-1.3,0c-0.4,0-0.9,0-1.3-0.1c-0.4-0.1-0.8-0.1-1.2-0.2
			c-0.3-0.1-0.7-0.2-1-0.3V43l3.3-0.5v5.7c0.4-0.2,0.8-0.3,1.2-0.4c0.4-0.1,0.9-0.1,1.3-0.1c0.8,0,1.5,0.1,2.2,0.4
			c0.6,0.3,1.2,0.7,1.6,1.2c0.4,0.6,0.8,1.2,1,1.9C176.9,52.1,177.1,52.9,177,53.8"/>
		<path id="path2991" class="st0" d="M179.1,53.9c0-0.9,0.1-1.9,0.5-2.7c0.3-0.7,0.8-1.4,1.3-2c0.5-0.5,1.1-0.9,1.8-1.2
			c0.7-0.3,1.4-0.4,2.1-0.4c1.5-0.1,2.9,0.5,3.9,1.5c1,1.2,1.6,2.8,1.5,4.5c0,0.2,0,0.4,0,0.7c0,0.2,0,0.4,0,0.6h-7.7
			c0.1,0.7,0.4,1.3,0.9,1.6c0.7,0.4,1.5,0.6,2.3,0.6c0.6,0,1.2-0.1,1.8-0.2c0.5-0.1,1-0.2,1.4-0.4l0.5,2.7c-0.2,0.1-0.5,0.2-0.7,0.3
			c-0.3,0.1-0.7,0.2-1,0.2c-0.4,0.1-0.8,0.1-1.1,0.2c-0.4,0-0.8,0-1.3,0c-0.9,0-1.9-0.1-2.8-0.5c-1.5-0.5-2.6-1.7-3.1-3.2
			C179.2,55.5,179.1,54.7,179.1,53.9 M186.9,52.6c0-0.3-0.1-0.6-0.1-0.8c-0.1-0.3-0.2-0.5-0.4-0.7c-0.2-0.2-0.4-0.4-0.7-0.5
			c-0.3-0.1-0.6-0.2-1-0.2c-0.3,0-0.6,0.1-0.9,0.2c-0.5,0.2-0.9,0.7-1.1,1.2c-0.1,0.3-0.2,0.6-0.2,0.8L186.9,52.6"/>
		<path id="path2993" class="st0" d="M199.7,50.9l-1.1-0.2c-0.4-0.1-0.9-0.1-1.3-0.1h-0.8l-0.6,0.1v9h-3.3V48.6
			c0.7-0.2,1.4-0.4,2.1-0.6c0.9-0.2,1.8-0.3,2.7-0.3h0.7l0.7,0.1l0.8,0.1c0.2,0,0.4,0.1,0.7,0.2L199.7,50.9"/>
		<path id="path2995" class="st0" d="M202.1,48.3c0.7-0.2,1.4-0.3,2.2-0.4c0.9-0.1,1.9-0.2,2.8-0.2c0.8,0,1.7,0.1,2.5,0.4
			c0.6,0.2,1.2,0.6,1.6,1.1c0.4,0.5,0.7,1.1,0.8,1.7c0.2,0.7,0.3,1.4,0.3,2.2v6.6h-3.3v-6.2c0.1-0.8-0.1-1.6-0.4-2.3
			c-0.4-0.5-1-0.7-1.6-0.7h-0.7h-0.7v9.1h-3.3V48.3"/>
		<path id="path2997" class="st0" d="M214.7,53.9c0-0.9,0.1-1.9,0.5-2.7c0.3-0.7,0.7-1.4,1.3-2c0.5-0.5,1.1-0.9,1.8-1.2
			c0.7-0.3,1.4-0.4,2.1-0.4c1.5-0.1,2.9,0.5,3.9,1.5c1,1.2,1.6,2.8,1.5,4.5c0,0.2,0,0.4,0,0.7c0,0.2,0,0.4,0,0.6h-7.7
			c0.1,0.7,0.4,1.3,1,1.6c0.7,0.4,1.5,0.6,2.3,0.6c0.6,0,1.2-0.1,1.8-0.2c0.5-0.1,1-0.2,1.5-0.4l0.5,2.7c-0.2,0.1-0.5,0.2-0.7,0.3
			c-0.3,0.1-0.7,0.2-1,0.2c-0.4,0.1-0.8,0.1-1.2,0.2c-0.4,0-0.8,0-1.2,0c-0.9,0-1.9-0.1-2.8-0.5c-1.5-0.5-2.6-1.7-3.1-3.2
			C214.8,55.4,214.7,54.6,214.7,53.9 M222.5,52.5c0-0.3-0.1-0.6-0.2-0.8c-0.1-0.3-0.2-0.5-0.4-0.7c-0.2-0.2-0.4-0.4-0.6-0.5
			c-0.3-0.1-0.6-0.2-1-0.2c-0.3,0-0.7,0.1-1,0.2c-0.2,0.1-0.5,0.3-0.7,0.5c-0.2,0.2-0.3,0.5-0.4,0.7c-0.1,0.3-0.2,0.6-0.2,0.8
			L222.5,52.5"/>
		<path id="path2999" class="st0" d="M228.2,45l3.3-0.5v3.5h4v2.8h-4v4.1c0,0.6,0.1,1.2,0.4,1.7c0.3,0.5,0.9,0.7,1.5,0.6
			c0.4,0,0.7,0,1.1,0c0.4-0.1,0.7-0.2,1.1-0.3l0.5,2.6c-0.4,0.2-0.9,0.3-1.3,0.4c-0.6,0.1-1.2,0.2-1.8,0.2c-0.8,0-1.5-0.1-2.3-0.3
			c-0.6-0.2-1.1-0.6-1.4-1c-0.4-0.5-0.6-1-0.7-1.6c-0.1-0.7-0.2-1.4-0.2-2.1L228.2,45"/>
		<path id="path3001" class="st0" d="M237.1,53.9c0-0.9,0.1-1.9,0.5-2.7c0.3-0.7,0.7-1.4,1.3-2c0.5-0.5,1.1-0.9,1.8-1.2
			c0.6-0.3,1.3-0.4,2-0.4c1.5-0.1,2.9,0.5,3.9,1.5c1.1,1.2,1.6,2.8,1.5,4.5c0,0.2,0,0.4,0,0.7s0,0.4,0,0.6h-7.5
			c0.1,0.7,0.4,1.3,0.9,1.6c0.7,0.4,1.5,0.6,2.3,0.6c0.6,0,1.2-0.1,1.8-0.2c0.5-0.1,1-0.2,1.5-0.4l0.4,2.7c-0.2,0.1-0.5,0.2-0.7,0.3
			c-0.3,0.1-0.7,0.2-1,0.2c-0.4,0.1-0.8,0.1-1.2,0.2c-0.4,0-0.8,0-1.3,0c-0.9,0-1.9-0.1-2.8-0.5c-0.7-0.3-1.4-0.7-1.9-1.3
			c-0.5-0.6-0.9-1.2-1.1-1.9c-0.2-0.8-0.4-1.6-0.4-2.4 M245,52.5c0-0.3-0.1-0.6-0.1-0.8c-0.1-0.3-0.2-0.5-0.4-0.7
			c-0.2-0.2-0.4-0.4-0.7-0.5c-0.3-0.1-0.6-0.2-0.9-0.2c-0.3,0-0.7,0.1-1,0.2c-0.5,0.2-0.9,0.7-1.1,1.2c-0.1,0.3-0.2,0.6-0.2,0.8H245
			"/>
		<path id="path3003" class="st0" d="M254.1,57.3c0.4,0,0.9,0,1.3-0.2c0.3-0.1,0.4-0.4,0.4-0.7c0-0.3-0.2-0.6-0.5-0.7
			c-0.5-0.3-1-0.5-1.5-0.7c-0.5-0.2-1-0.4-1.4-0.6c-0.4-0.2-0.8-0.4-1.1-0.7c-0.3-0.3-0.5-0.7-0.7-1.1c-0.2-0.5-0.3-1-0.3-1.5
			c0-1,0.4-2,1.2-2.6c1-0.7,2.2-1,3.4-1c0.7,0,1.4,0.1,2.1,0.2c0.5,0.1,1.1,0.2,1.6,0.4l-0.6,2.6c-0.4-0.1-0.8-0.3-1.3-0.4
			c-0.5-0.1-1-0.2-1.5-0.2c-1.1,0-1.6,0.3-1.6,0.9c0,0.1,0,0.2,0,0.4c0.1,0.1,0.2,0.2,0.3,0.3c0.2,0.1,0.3,0.2,0.5,0.3l0.9,0.4
			c0.6,0.2,1.2,0.5,1.8,0.8c0.4,0.2,0.8,0.5,1.1,0.9c0.3,0.3,0.5,0.6,0.6,1c0.1,0.4,0.2,0.9,0.2,1.3c0.1,1-0.4,2-1.3,2.6
			c-1.1,0.6-2.4,1-3.6,0.9c-0.9,0-1.7-0.1-2.6-0.3c-0.5-0.1-1-0.3-1.4-0.5l0.6-2.7c0.6,0.2,1.2,0.4,1.8,0.5c0.6,0.1,1.2,0.2,1.8,0.2
			"/>
	</g>
</g>
<g id="layer1-2">
	<g id="g3052">
		<path id="path3055" class="st1" d="M199.6,1c-0.4,0-0.7,0.1-1,0.3l-13.9,6.6c-0.7,0.4-1.3,1-1.4,1.8l-3.4,14.9
			c-0.2,0.7,0,1.4,0.4,2c0,0.1,0.1,0.1,0.1,0.2l9.7,12c0.5,0.6,1.3,1,2.1,1h15.4c0.8,0,1.6-0.4,2.1-1l9.5-12
			c0.5-0.6,0.7-1.5,0.5-2.2l-3.4-14.9c-0.2-0.8-0.7-1.5-1.4-1.8l-13.8-6.6C200.5,1.1,200,1,199.6,1z"/>
		<path id="path3059" class="st2" d="M199.7,6.1c-0.5,0-0.8,0.4-0.8,0.9c0,0,0,0,0,0l0,0v0.2c0,0.3,0.1,0.5,0.1,0.8
			c0.1,0.5,0.1,1,0,1.5c-0.1,0.2-0.1,0.3-0.3,0.4v0.4c-0.5,0-1,0.1-1.5,0.2c-2.1,0.5-3.9,1.6-5.4,3.1l-0.3-0.2
			c-0.2,0.1-0.3,0.1-0.5,0c-0.4-0.3-0.8-0.6-1.1-1c-0.2-0.2-0.3-0.4-0.5-0.6l-0.2-0.1c-0.2-0.1-0.4-0.2-0.6-0.2
			c-0.3,0-0.5,0.1-0.7,0.3c-0.3,0.4-0.2,0.9,0.2,1.2l0,0l0.2,0.1c0.2,0.1,0.5,0.3,0.7,0.4c0.4,0.3,0.9,0.5,1.2,0.9
			c0.1,0.1,0.2,0.3,0.2,0.5l0.3,0.3c-1.5,2.2-2.1,4.9-1.7,7.6l-0.3,0.1c-0.1,0.1-0.2,0.3-0.3,0.3c-0.5,0.1-1,0.2-1.5,0.3
			c-0.3,0-0.5,0-0.8,0h-0.2l0,0c-0.5,0.1-0.8,0.5-0.7,1c0.1,0.5,0.6,0.7,1.1,0.6l0,0h0.2c0.3-0.1,0.5-0.2,0.7-0.3
			c0.5-0.2,1-0.3,1.5-0.4c0.2,0,0.3,0.1,0.5,0.2h0.4c0.8,2.5,2.5,4.7,4.8,6l-0.2,0.4c0.1,0.2,0.1,0.3,0,0.5
			c-0.2,0.5-0.5,0.9-0.7,1.4c-0.2,0.2-0.3,0.4-0.5,0.7l-0.1,0.2c-0.2,0.4-0.1,0.9,0.4,1.2c0.4,0.2,1,0,1.1-0.5c0,0,0,0,0,0l0,0
			l0.1-0.2c0.1-0.2,0.2-0.5,0.2-0.8c0.1-0.5,0.4-1,0.7-1.5c0.1-0.1,0.2-0.2,0.3-0.2l0.2-0.3c2,0.8,4.2,0.9,6.3,0.5
			c0.5-0.1,1-0.3,1.4-0.4c0,0,0.1,0.3,0.2,0.3c0.2,0,0.3,0.1,0.4,0.3c0.2,0.4,0.4,0.9,0.6,1.4c0,0.3,0.1,0.5,0.2,0.8l0.1,0.2
			c0.2,0.4,0.6,0.7,1.1,0.5c0.4-0.2,0.7-0.6,0.5-1.1c0,0,0-0.1-0.1-0.1c0-0.1-0.1-0.1-0.1-0.2c-0.1-0.2-0.3-0.5-0.5-0.7
			c-0.3-0.4-0.5-0.9-0.7-1.3c-0.1-0.2-0.1-0.3,0-0.5l-0.1-0.3c2.3-1.4,4.1-3.5,4.9-6.1h0.3c0.1-0.1,0.3-0.2,0.5-0.2
			c0.5,0.1,1,0.2,1.5,0.4c0.2,0.1,0.5,0.2,0.7,0.3h0.2l0,0c0.5,0.1,0.9-0.1,1.1-0.6c0,0,0,0,0,0c0.1-0.5-0.2-0.9-0.7-1h-0.2
			c-0.3,0-0.5,0-0.8,0c-0.5,0-1-0.1-1.5-0.3c-0.2,0-0.3-0.3-0.3-0.4h-0.3c0.4-2.6-0.2-5.3-1.7-7.5c0.1-0.1,0.2-0.2,0.3-0.3
			c0-0.2,0-0.3,0.2-0.5c0.4-0.3,0.8-0.6,1.2-0.9c0.2-0.1,0.5-0.2,0.7-0.4l0.2-0.1c0.4-0.3,0.5-0.8,0.2-1.2c-0.3-0.3-0.9-0.3-1.2,0
			H210c-0.2,0.2-0.4,0.4-0.6,0.6c-0.3,0.4-0.7,0.7-1.1,1c-0.2,0.1-0.3,0.1-0.5,0l-0.3,0.2c-1.8-1.9-4.3-3.1-6.9-3.3
			c0-0.1,0-0.3,0-0.4c-0.1-0.1-0.2-0.3-0.3-0.4c-0.1-0.5-0.1-1,0-1.5c0.1-0.3,0.1-0.5,0.1-0.8c0-0.1,0-0.2,0-0.2
			c0-0.5-0.3-0.9-0.8-0.9c0,0,0,0,0,0L199.7,6.1z M198.7,12.5l-0.3,4.4l0,0c0,0.4-0.4,0.7-0.8,0.7c-0.1,0-0.3-0.1-0.4-0.1l0,0
			l-3.6-2.5c1.1-1.1,2.6-1.9,4.1-2.3L198.7,12.5z M200.7,12.5c1.9,0.2,3.6,1.1,5,2.4l-3.6,2.5l0,0c-0.3,0.2-0.8,0.2-1-0.1
			c-0.1-0.1-0.2-0.3-0.2-0.4l0,0L200.7,12.5z M192.3,16.6l3.3,2.9l0,0c0.3,0.3,0.3,0.7,0,1c-0.1,0.1-0.2,0.2-0.4,0.3l0,0L191,22
			C190.9,20.1,191.3,18.2,192.3,16.6z M207,16.6c0.5,0.8,0.9,1.7,1.1,2.6c0.2,0.9,0.3,1.9,0.2,2.8l-4.2-1.2l0,0
			c-0.4-0.1-0.6-0.5-0.5-0.9c0-0.2,0.1-0.3,0.2-0.4l0,0L207,16.6L207,16.6z M199.1,19.7h1.3l0.8,1l-0.3,1.3l-1.2,0.6l-1.2-0.6
			l-0.3-1.3L199.1,19.7z M203.4,23.4h0.2l4.3,0.7c-0.6,1.8-1.9,3.3-3.5,4.4l-1.7-4.1l0,0c-0.2-0.4,0-0.8,0.3-0.9
			C203.2,23.4,203.3,23.4,203.4,23.4L203.4,23.4z M196.1,23.4c0.3,0,0.6,0.2,0.7,0.6c0,0.1,0,0.3,0,0.5l0,0l-1.7,4
			c-1.6-1-2.8-2.5-3.5-4.3l4.3-0.7L196.1,23.4L196.1,23.4z M199.7,25.2c0.1,0,0.2,0,0.3,0c0.1,0.1,0.3,0.2,0.3,0.3l0,0l2.1,3.8
			l-0.9,0.2c-1.6,0.4-3.2,0.3-4.7-0.2l2.1-3.9l0,0c0.1-0.2,0.3-0.4,0.6-0.4L199.7,25.2z"/>
	</g>
</g>
<path class="st3" d="M52.8,46.2c0-0.7,0-1.5,0-2.3c0-0.6-0.5-1-1.1-1c-0.2,0-0.3,0-0.4,0.1c-0.4,0.2-0.7,0.7-0.6,1.2v5.1L50.3,49
	c-2.7-1.9-6.4-1.2-8.2,1.5c-0.1,0.1-0.1,0.2-0.2,0.3c-1.2,1.9-1.2,4.3,0,6.2c1,1.9,3,3,5.1,2.9c3.2,0.1,5.9-2.5,5.9-5.8
	c0-0.1,0-0.2,0-0.3C52.9,51.3,52.9,48.8,52.8,46.2z M46.9,57.6c-2,0-3.7-1.7-3.7-3.7s1.7-3.7,3.7-3.7c2,0,3.7,1.7,3.7,3.7
	S48.9,57.6,46.9,57.6z"/>
<path class="st3" d="M95.9,48.1c-2.9-0.4-5.7,1.4-6.6,4.2c-0.9,2.8,0.5,5.8,3.2,7.1c2.1,1,4.6,0.6,6.4-0.9c0.4-0.3,0.6-0.8,0.5-1.3
	c-0.1-0.4-0.4-0.7-0.8-0.8c-0.4-0.1-0.9,0.1-1.2,0.4c-1.6,1.3-4,1-5.3-0.6c-0.2-0.2-0.3-0.4-0.4-0.6c-0.2-0.4-0.2-0.6,0.3-0.6
	c1.3,0,2.5,0,3.8,0h3.9c0.9,0,1.3-0.4,1.3-1.2C100.9,50.9,98.7,48.5,95.9,48.1z M98.1,52.9h-6.3c-0.3,0-0.5,0-0.3-0.4
	c0.9-1.9,3.1-2.7,5-1.8c0.8,0.4,1.4,1,1.8,1.8C98.5,52.8,98.5,52.9,98.1,52.9z"/>
<path class="st3" d="M80.7,52.3l5.8-3.8l0.5-0.3c0.5-0.3,1.1-0.2,1.5,0.3c0,0,0,0.1,0.1,0.1c0.3,0.5,0.2,1.1-0.3,1.4c0,0,0,0,0,0
	c-1.3,0.8-2.5,1.7-3.8,2.5c-0.5,0.3-0.4,0.5-0.1,0.8c1.3,1.5,2.7,3,4,4.5c0.4,0.3,0.5,0.8,0.4,1.2c-0.1,0.6-0.7,1-1.3,0.8
	c-0.3-0.1-0.5-0.2-0.6-0.4c-1.5-1.6-2.9-3.3-4.3-4.9c-0.3-0.3-0.5-0.3-0.9-0.1c-0.6,0.3-0.9,0.9-0.8,1.5c0,0.9,0,1.8,0,2.7
	c0,0.8-0.5,1.3-1.1,1.3s-1.1-0.5-1.1-1.3V44.2c0-0.8,0.4-1.3,1.1-1.3s1.2,0.5,1.2,1.3c0,2.5,0,5,0,7.5L80.7,52.3z"/>
<path class="st3" d="M60.1,48c-3.3-0.1-6.1,2.5-6.1,5.9s2.5,6.1,5.9,6.1c3.3,0.1,6-2.5,6.1-5.8c0.2-3.3-2.4-6-5.6-6.2
	C60.2,48,60.1,48,60.1,48z M60.1,57.6c-2.1,0-3.7-1.7-3.7-3.7c0-2.1,1.7-3.7,3.7-3.7c2.1,0,3.7,1.7,3.7,3.7
	C63.8,56,62.1,57.6,60.1,57.6C60,57.6,60,57.6,60.1,57.6L60.1,57.6z"/>
<path class="st3" d="M67,53.9c0-2.3,1.3-4.4,3.5-5.3c2-1,4.5-0.7,6.2,0.7c0.5,0.3,0.7,1,0.4,1.6c0,0,0,0.1-0.1,0.1
	c-0.4,0.5-1,0.6-1.5,0.2c0,0-0.1-0.1-0.1-0.1c-1.4-1.1-3.4-1.1-4.8,0c-1.5,1.3-1.8,3.6-0.5,5.1c0.2,0.2,0.4,0.4,0.6,0.6
	c1.3,1,3.2,1,4.5,0c0.7-0.5,1.3-0.5,1.7-0.1c0.5,0.4,0.5,1.2,0.1,1.6c-0.1,0.1-0.1,0.1-0.2,0.2c-2.6,2.1-6.3,1.7-8.4-0.9
	c-0.5-0.6-0.9-1.3-1.1-2.1C67.1,54.9,67,54.4,67,53.9z"/>
<path class="st3" d="M104.4,49.3c1.5-1.1,3.5-1.5,5.3-1.1c0.3,0.1,0.6,0.2,0.8,0.3c0.5,0.3,0.7,0.9,0.5,1.4
	c-0.2,0.5-0.8,0.8-1.3,0.6c-0.5-0.1-1-0.2-1.5-0.3c-2-0.1-3.7,1.4-3.9,3.4c0,0.1,0,0.2,0,0.3c0,1.5,0,3.1,0,4.6
	c0,0.8-0.4,1.3-1.1,1.3s-1.1-0.5-1.1-1.3v-9.1c0-0.8,0.3-1.3,1-1.4C103.8,48,104.2,48.3,104.4,49.3z"/>
<path class="st3" d="M68.6,18.2c5.7,0,11.3,0,17,0c1.4,0,2.7-0.3,4-0.7c0.4-0.2,0.5-0.3,0.3-0.7c-1.3-2.8-1-6.1,0.8-8.6
	c0.3-0.6,0.7-0.6,1.2-0.3c1.9,1.2,3.2,3.1,3.6,5.2c0.1,0.5,0.4,0.6,0.8,0.5c1.8-0.4,3.8-0.1,5.5,0.7c1.2,0.6,1.3,0.8,0.6,1.9
	c-1.4,2.5-4,3.9-6.9,3.9c-0.6-0.1-1.2,0.3-1.3,0.9c-1.6,4.3-4.2,8.1-7.6,11.2c-4,3.3-8.8,5.4-13.9,5.9c-4,0.6-8.1,0.4-12.1-0.5
	c-4.6-0.9-8.3-4.3-9.7-8.7c-1-2.7-1.5-5.6-1.5-8.5c0-1.5,0.6-2.1,2.1-2.1L68.6,18.2z"/>
<path class="st4" d="M69.7,17.3h-2.1c-0.5,0-0.7-0.2-0.7-0.7c0-1.2,0-2.4,0-3.6c0-0.5,0.2-0.7,0.7-0.7c1.4,0,2.8,0,4.2,0
	c0.5,0,0.7,0.3,0.7,0.7c0,1.2,0,2.4,0,3.5c0,0.6-0.2,0.9-0.8,0.8L69.7,17.3z"/>
<path class="st4" d="M69.7,6.1c0.7,0,1.4,0,2.1,0c0.7,0,0.7,0.2,0.7,0.7v3.6c0,0.5-0.3,0.8-0.8,0.8h-4c-0.6,0-0.8-0.3-0.8-0.8
	c0-1.2,0-2.4,0-3.5c0-0.6,0.3-0.8,0.8-0.8C68.3,6.1,69.1,6.1,69.7,6.1z"/>
<path class="st4" d="M82.7,12.1c0.7,0,1.4,0,2.1,0c0.7,0,0.8,0.2,0.8,0.8c0,1.2,0,2.4,0,3.6c0,0.5-0.2,0.7-0.7,0.7h-4.1
	c-0.4,0.1-0.7-0.2-0.7-0.5c0-0.1,0-0.1,0-0.2c0-1.2,0-2.5,0-3.6c0-0.5,0.3-0.7,0.7-0.7C81.2,12.2,82.1,12.1,82.7,12.1z"/>
<path class="st4" d="M76.3,12.1c0.7,0,1.3,0,2,0s0.7,0.2,0.7,0.7c0,1.2,0,2.5,0,3.6c0,0.5-0.2,0.7-0.7,0.7h-4.2
	c-0.5,0-0.7-0.2-0.7-0.7c0-1.2,0-2.5,0-3.6c0-0.5,0.2-0.7,0.7-0.7C74.7,12.1,75.6,12.1,76.3,12.1z"/>
<path class="st5" d="M63.1,17.3h-2c-0.6,0-0.8-0.2-0.8-0.8c0-1.2,0-2.3,0-3.5c0-0.5,0.2-0.8,0.7-0.8c1.3,0,2.7,0,4,0
	c0.5,0,0.8,0.2,0.8,0.7c0,1.2,0,2.4,0,3.6c0,0.6-0.2,0.8-0.8,0.7L63.1,17.3z"/>
<path class="st4" d="M56.6,12.1c0.7,0,1.4,0,2.1,0c0.7,0,0.7,0.2,0.7,0.7c0,1.2,0,2.4,0,3.6c0,0.5-0.2,0.7-0.7,0.7h-4
	c-0.5,0-0.8-0.2-0.8-0.8c0-1.2,0-2.4,0-3.6c0-0.5,0.2-0.7,0.7-0.7C55,12,55.9,12.1,56.6,12.1z"/>
<path class="st4" d="M76.3,6.1c0.6,0,1.3,0,1.8,0c0.6,0,0.9,0.2,0.8,0.8c0,1.2,0,2.3,0,3.5c0,0.5-0.2,0.8-0.8,0.8h-3.9
	c-0.6,0-0.9-0.2-0.8-0.8c0-1.2,0-2.3,0-3.5c0-0.6,0.2-0.8,0.8-0.8C74.7,6.1,75.6,6.1,76.3,6.1z"/>
<path class="st5" d="M63.1,11.2h-2c-0.6,0-0.9-0.2-0.9-0.8c0-1.2,0-2.4,0-3.6c0-0.5,0.2-0.7,0.7-0.7c1.4,0,2.8,0,4.2,0
	c0.5,0,0.7,0.3,0.7,0.8c0,1.2,0,2.4,0,3.5c0,0.6-0.2,0.8-0.8,0.8L63.1,11.2z"/>
<path class="st4" d="M76.2,5.1h-2c-0.5,0-0.8-0.2-0.8-0.8c0-1.2,0-2.4,0-3.6c0-0.5,0.2-0.7,0.7-0.7h4.1C78.8,0,79,0.2,79,0.8
	c0,1.2,0,2.4,0,3.6c0,0.5-0.2,0.7-0.7,0.7H76.2z"/>
</svg>
